<mxfile host="app.diagrams.net" agent="Mozilla/5.0 (Windows NT 10.0; Win64; x64) AppleWebKit/537.36 (KHTML, like Gecko) Chrome/135.0.0.0 Safari/537.36" version="26.2.9">
  <diagram id="R2lEEEUBdFMjLlhIrx00" name="Page-1">
    <mxGraphModel dx="788" dy="1559" grid="1" gridSize="10" guides="1" tooltips="1" connect="1" arrows="1" fold="1" page="1" pageScale="1" pageWidth="850" pageHeight="1100" math="0" shadow="0" extFonts="Permanent Marker^https://fonts.googleapis.com/css?family=Permanent+Marker">
      <root>
        <mxCell id="0" />
        <mxCell id="1" parent="0" />
        <mxCell id="C-vyLk0tnHw3VtMMgP7b-2" value="Prestamos" style="shape=table;startSize=30;container=1;collapsible=1;childLayout=tableLayout;fixedRows=1;rowLines=0;fontStyle=1;align=center;resizeLast=1;" parent="1" vertex="1">
          <mxGeometry x="450" y="-550" width="250" height="100" as="geometry" />
        </mxCell>
        <mxCell id="C-vyLk0tnHw3VtMMgP7b-3" value="" style="shape=partialRectangle;collapsible=0;dropTarget=0;pointerEvents=0;fillColor=none;points=[[0,0.5],[1,0.5]];portConstraint=eastwest;top=0;left=0;right=0;bottom=1;" parent="C-vyLk0tnHw3VtMMgP7b-2" vertex="1">
          <mxGeometry y="30" width="250" height="30" as="geometry" />
        </mxCell>
        <mxCell id="C-vyLk0tnHw3VtMMgP7b-4" value="PK" style="shape=partialRectangle;overflow=hidden;connectable=0;fillColor=none;top=0;left=0;bottom=0;right=0;fontStyle=1;" parent="C-vyLk0tnHw3VtMMgP7b-3" vertex="1">
          <mxGeometry width="30" height="30" as="geometry">
            <mxRectangle width="30" height="30" as="alternateBounds" />
          </mxGeometry>
        </mxCell>
        <mxCell id="C-vyLk0tnHw3VtMMgP7b-5" value="Cbu" style="shape=partialRectangle;overflow=hidden;connectable=0;fillColor=none;top=0;left=0;bottom=0;right=0;align=left;spacingLeft=6;fontStyle=5;" parent="C-vyLk0tnHw3VtMMgP7b-3" vertex="1">
          <mxGeometry x="30" width="220" height="30" as="geometry">
            <mxRectangle width="220" height="30" as="alternateBounds" />
          </mxGeometry>
        </mxCell>
        <mxCell id="C-vyLk0tnHw3VtMMgP7b-9" value="" style="shape=partialRectangle;collapsible=0;dropTarget=0;pointerEvents=0;fillColor=none;points=[[0,0.5],[1,0.5]];portConstraint=eastwest;top=0;left=0;right=0;bottom=0;" parent="C-vyLk0tnHw3VtMMgP7b-2" vertex="1">
          <mxGeometry y="60" width="250" height="30" as="geometry" />
        </mxCell>
        <mxCell id="C-vyLk0tnHw3VtMMgP7b-10" value="" style="shape=partialRectangle;overflow=hidden;connectable=0;fillColor=none;top=0;left=0;bottom=0;right=0;" parent="C-vyLk0tnHw3VtMMgP7b-9" vertex="1">
          <mxGeometry width="30" height="30" as="geometry">
            <mxRectangle width="30" height="30" as="alternateBounds" />
          </mxGeometry>
        </mxCell>
        <mxCell id="C-vyLk0tnHw3VtMMgP7b-11" value="MontoÂ " style="shape=partialRectangle;overflow=hidden;connectable=0;fillColor=none;top=0;left=0;bottom=0;right=0;align=left;spacingLeft=6;" parent="C-vyLk0tnHw3VtMMgP7b-9" vertex="1">
          <mxGeometry x="30" width="220" height="30" as="geometry">
            <mxRectangle width="220" height="30" as="alternateBounds" />
          </mxGeometry>
        </mxCell>
        <mxCell id="C-vyLk0tnHw3VtMMgP7b-23" value="Clientes" style="shape=table;startSize=30;container=1;collapsible=1;childLayout=tableLayout;fixedRows=1;rowLines=0;fontStyle=1;align=center;resizeLast=1;" parent="1" vertex="1">
          <mxGeometry x="90" y="-550" width="250" height="160" as="geometry" />
        </mxCell>
        <mxCell id="C-vyLk0tnHw3VtMMgP7b-24" value="" style="shape=partialRectangle;collapsible=0;dropTarget=0;pointerEvents=0;fillColor=none;points=[[0,0.5],[1,0.5]];portConstraint=eastwest;top=0;left=0;right=0;bottom=1;" parent="C-vyLk0tnHw3VtMMgP7b-23" vertex="1">
          <mxGeometry y="30" width="250" height="30" as="geometry" />
        </mxCell>
        <mxCell id="C-vyLk0tnHw3VtMMgP7b-25" value="PK" style="shape=partialRectangle;overflow=hidden;connectable=0;fillColor=none;top=0;left=0;bottom=0;right=0;fontStyle=1;" parent="C-vyLk0tnHw3VtMMgP7b-24" vertex="1">
          <mxGeometry width="30" height="30" as="geometry">
            <mxRectangle width="30" height="30" as="alternateBounds" />
          </mxGeometry>
        </mxCell>
        <mxCell id="C-vyLk0tnHw3VtMMgP7b-26" value="Dni" style="shape=partialRectangle;overflow=hidden;connectable=0;fillColor=none;top=0;left=0;bottom=0;right=0;align=left;spacingLeft=6;fontStyle=5;" parent="C-vyLk0tnHw3VtMMgP7b-24" vertex="1">
          <mxGeometry x="30" width="220" height="30" as="geometry">
            <mxRectangle width="220" height="30" as="alternateBounds" />
          </mxGeometry>
        </mxCell>
        <mxCell id="C-vyLk0tnHw3VtMMgP7b-27" value="" style="shape=partialRectangle;collapsible=0;dropTarget=0;pointerEvents=0;fillColor=none;points=[[0,0.5],[1,0.5]];portConstraint=eastwest;top=0;left=0;right=0;bottom=0;" parent="C-vyLk0tnHw3VtMMgP7b-23" vertex="1">
          <mxGeometry y="60" width="250" height="30" as="geometry" />
        </mxCell>
        <mxCell id="C-vyLk0tnHw3VtMMgP7b-28" value="" style="shape=partialRectangle;overflow=hidden;connectable=0;fillColor=none;top=0;left=0;bottom=0;right=0;" parent="C-vyLk0tnHw3VtMMgP7b-27" vertex="1">
          <mxGeometry width="30" height="30" as="geometry">
            <mxRectangle width="30" height="30" as="alternateBounds" />
          </mxGeometry>
        </mxCell>
        <mxCell id="C-vyLk0tnHw3VtMMgP7b-29" value="Nombre" style="shape=partialRectangle;overflow=hidden;connectable=0;fillColor=none;top=0;left=0;bottom=0;right=0;align=left;spacingLeft=6;" parent="C-vyLk0tnHw3VtMMgP7b-27" vertex="1">
          <mxGeometry x="30" width="220" height="30" as="geometry">
            <mxRectangle width="220" height="30" as="alternateBounds" />
          </mxGeometry>
        </mxCell>
        <mxCell id="zXkW9Ej68mSKd0yjlB5Z-1" style="shape=partialRectangle;collapsible=0;dropTarget=0;pointerEvents=0;fillColor=none;points=[[0,0.5],[1,0.5]];portConstraint=eastwest;top=0;left=0;right=0;bottom=0;" parent="C-vyLk0tnHw3VtMMgP7b-23" vertex="1">
          <mxGeometry y="90" width="250" height="30" as="geometry" />
        </mxCell>
        <mxCell id="zXkW9Ej68mSKd0yjlB5Z-2" style="shape=partialRectangle;overflow=hidden;connectable=0;fillColor=none;top=0;left=0;bottom=0;right=0;" parent="zXkW9Ej68mSKd0yjlB5Z-1" vertex="1">
          <mxGeometry width="30" height="30" as="geometry">
            <mxRectangle width="30" height="30" as="alternateBounds" />
          </mxGeometry>
        </mxCell>
        <mxCell id="zXkW9Ej68mSKd0yjlB5Z-3" value="Edad" style="shape=partialRectangle;overflow=hidden;connectable=0;fillColor=none;top=0;left=0;bottom=0;right=0;align=left;spacingLeft=6;" parent="zXkW9Ej68mSKd0yjlB5Z-1" vertex="1">
          <mxGeometry x="30" width="220" height="30" as="geometry">
            <mxRectangle width="220" height="30" as="alternateBounds" />
          </mxGeometry>
        </mxCell>
        <mxCell id="_EiMe0InrAHfZFg6CCc1-36" style="shape=partialRectangle;collapsible=0;dropTarget=0;pointerEvents=0;fillColor=none;points=[[0,0.5],[1,0.5]];portConstraint=eastwest;top=0;left=0;right=0;bottom=0;" vertex="1" parent="C-vyLk0tnHw3VtMMgP7b-23">
          <mxGeometry y="120" width="250" height="30" as="geometry" />
        </mxCell>
        <mxCell id="_EiMe0InrAHfZFg6CCc1-37" value="FK" style="shape=partialRectangle;overflow=hidden;connectable=0;fillColor=none;top=0;left=0;bottom=0;right=0;" vertex="1" parent="_EiMe0InrAHfZFg6CCc1-36">
          <mxGeometry width="30" height="30" as="geometry">
            <mxRectangle width="30" height="30" as="alternateBounds" />
          </mxGeometry>
        </mxCell>
        <mxCell id="_EiMe0InrAHfZFg6CCc1-38" value="Cbu" style="shape=partialRectangle;overflow=hidden;connectable=0;fillColor=none;top=0;left=0;bottom=0;right=0;align=left;spacingLeft=6;" vertex="1" parent="_EiMe0InrAHfZFg6CCc1-36">
          <mxGeometry x="30" width="220" height="30" as="geometry">
            <mxRectangle width="220" height="30" as="alternateBounds" />
          </mxGeometry>
        </mxCell>
        <mxCell id="_EiMe0InrAHfZFg6CCc1-1" value="&lt;font style=&quot;font-size: 20px;&quot;&gt;&lt;b&gt;(1-n)&lt;/b&gt;&lt;/font&gt;" style="text;html=1;align=center;verticalAlign=middle;whiteSpace=wrap;rounded=0;" vertex="1" parent="1">
          <mxGeometry x="395" y="-1020" width="60" height="30" as="geometry" />
        </mxCell>
        <mxCell id="_EiMe0InrAHfZFg6CCc1-2" value="Clientes" style="shape=table;startSize=30;container=1;collapsible=0;childLayout=tableLayout;strokeColor=default;fontSize=16;fontStyle=1" vertex="1" parent="1">
          <mxGeometry x="60" y="-950" width="320" height="290" as="geometry" />
        </mxCell>
        <mxCell id="_EiMe0InrAHfZFg6CCc1-3" value="" style="shape=tableRow;horizontal=0;startSize=0;swimlaneHead=0;swimlaneBody=0;strokeColor=inherit;top=0;left=0;bottom=0;right=0;collapsible=0;dropTarget=0;fillColor=none;points=[[0,0.5],[1,0.5]];portConstraint=eastwest;fontSize=16;" vertex="1" parent="_EiMe0InrAHfZFg6CCc1-2">
          <mxGeometry y="30" width="320" height="65" as="geometry" />
        </mxCell>
        <mxCell id="_EiMe0InrAHfZFg6CCc1-4" value="&lt;b&gt;&lt;u&gt;Dni&lt;/u&gt;&lt;/b&gt;" style="shape=partialRectangle;html=1;whiteSpace=wrap;connectable=0;strokeColor=inherit;overflow=hidden;fillColor=none;top=0;left=0;bottom=0;right=0;pointerEvents=1;fontSize=16;" vertex="1" parent="_EiMe0InrAHfZFg6CCc1-3">
          <mxGeometry width="107" height="65" as="geometry">
            <mxRectangle width="107" height="65" as="alternateBounds" />
          </mxGeometry>
        </mxCell>
        <mxCell id="_EiMe0InrAHfZFg6CCc1-5" value="&lt;b&gt;Nombre&lt;/b&gt;" style="shape=partialRectangle;html=1;whiteSpace=wrap;connectable=0;strokeColor=inherit;overflow=hidden;fillColor=none;top=0;left=0;bottom=0;right=0;pointerEvents=1;fontSize=16;" vertex="1" parent="_EiMe0InrAHfZFg6CCc1-3">
          <mxGeometry x="107" width="106" height="65" as="geometry">
            <mxRectangle width="106" height="65" as="alternateBounds" />
          </mxGeometry>
        </mxCell>
        <mxCell id="_EiMe0InrAHfZFg6CCc1-6" value="&lt;b&gt;Edad&lt;/b&gt;" style="shape=partialRectangle;html=1;whiteSpace=wrap;connectable=0;strokeColor=inherit;overflow=hidden;fillColor=none;top=0;left=0;bottom=0;right=0;pointerEvents=1;fontSize=16;" vertex="1" parent="_EiMe0InrAHfZFg6CCc1-3">
          <mxGeometry x="213" width="107" height="65" as="geometry">
            <mxRectangle width="107" height="65" as="alternateBounds" />
          </mxGeometry>
        </mxCell>
        <mxCell id="_EiMe0InrAHfZFg6CCc1-7" value="" style="shape=tableRow;horizontal=0;startSize=0;swimlaneHead=0;swimlaneBody=0;strokeColor=inherit;top=0;left=0;bottom=0;right=0;collapsible=0;dropTarget=0;fillColor=none;points=[[0,0.5],[1,0.5]];portConstraint=eastwest;fontSize=16;" vertex="1" parent="_EiMe0InrAHfZFg6CCc1-2">
          <mxGeometry y="95" width="320" height="64" as="geometry" />
        </mxCell>
        <mxCell id="_EiMe0InrAHfZFg6CCc1-8" value="40549876" style="shape=partialRectangle;html=1;whiteSpace=wrap;connectable=0;strokeColor=inherit;overflow=hidden;fillColor=none;top=0;left=0;bottom=0;right=0;pointerEvents=1;fontSize=16;" vertex="1" parent="_EiMe0InrAHfZFg6CCc1-7">
          <mxGeometry width="107" height="64" as="geometry">
            <mxRectangle width="107" height="64" as="alternateBounds" />
          </mxGeometry>
        </mxCell>
        <mxCell id="_EiMe0InrAHfZFg6CCc1-9" value="Felix Montenegro" style="shape=partialRectangle;html=1;whiteSpace=wrap;connectable=0;strokeColor=inherit;overflow=hidden;fillColor=none;top=0;left=0;bottom=0;right=0;pointerEvents=1;fontSize=16;" vertex="1" parent="_EiMe0InrAHfZFg6CCc1-7">
          <mxGeometry x="107" width="106" height="64" as="geometry">
            <mxRectangle width="106" height="64" as="alternateBounds" />
          </mxGeometry>
        </mxCell>
        <mxCell id="_EiMe0InrAHfZFg6CCc1-10" value="28" style="shape=partialRectangle;html=1;whiteSpace=wrap;connectable=0;strokeColor=inherit;overflow=hidden;fillColor=none;top=0;left=0;bottom=0;right=0;pointerEvents=1;fontSize=16;" vertex="1" parent="_EiMe0InrAHfZFg6CCc1-7">
          <mxGeometry x="213" width="107" height="64" as="geometry">
            <mxRectangle width="107" height="64" as="alternateBounds" />
          </mxGeometry>
        </mxCell>
        <mxCell id="_EiMe0InrAHfZFg6CCc1-11" value="" style="shape=tableRow;horizontal=0;startSize=0;swimlaneHead=0;swimlaneBody=0;strokeColor=inherit;top=0;left=0;bottom=0;right=0;collapsible=0;dropTarget=0;fillColor=none;points=[[0,0.5],[1,0.5]];portConstraint=eastwest;fontSize=16;" vertex="1" parent="_EiMe0InrAHfZFg6CCc1-2">
          <mxGeometry y="159" width="320" height="66" as="geometry" />
        </mxCell>
        <mxCell id="_EiMe0InrAHfZFg6CCc1-12" value="38456587" style="shape=partialRectangle;html=1;whiteSpace=wrap;connectable=0;strokeColor=inherit;overflow=hidden;fillColor=none;top=0;left=0;bottom=0;right=0;pointerEvents=1;fontSize=16;" vertex="1" parent="_EiMe0InrAHfZFg6CCc1-11">
          <mxGeometry width="107" height="66" as="geometry">
            <mxRectangle width="107" height="66" as="alternateBounds" />
          </mxGeometry>
        </mxCell>
        <mxCell id="_EiMe0InrAHfZFg6CCc1-13" value="Enrique Maidana" style="shape=partialRectangle;html=1;whiteSpace=wrap;connectable=0;strokeColor=inherit;overflow=hidden;fillColor=none;top=0;left=0;bottom=0;right=0;pointerEvents=1;fontSize=16;" vertex="1" parent="_EiMe0InrAHfZFg6CCc1-11">
          <mxGeometry x="107" width="106" height="66" as="geometry">
            <mxRectangle width="106" height="66" as="alternateBounds" />
          </mxGeometry>
        </mxCell>
        <mxCell id="_EiMe0InrAHfZFg6CCc1-14" value="32" style="shape=partialRectangle;html=1;whiteSpace=wrap;connectable=0;strokeColor=inherit;overflow=hidden;fillColor=none;top=0;left=0;bottom=0;right=0;pointerEvents=1;fontSize=16;" vertex="1" parent="_EiMe0InrAHfZFg6CCc1-11">
          <mxGeometry x="213" width="107" height="66" as="geometry">
            <mxRectangle width="107" height="66" as="alternateBounds" />
          </mxGeometry>
        </mxCell>
        <mxCell id="_EiMe0InrAHfZFg6CCc1-32" style="shape=tableRow;horizontal=0;startSize=0;swimlaneHead=0;swimlaneBody=0;strokeColor=inherit;top=0;left=0;bottom=0;right=0;collapsible=0;dropTarget=0;fillColor=none;points=[[0,0.5],[1,0.5]];portConstraint=eastwest;fontSize=16;" vertex="1" parent="_EiMe0InrAHfZFg6CCc1-2">
          <mxGeometry y="225" width="320" height="65" as="geometry" />
        </mxCell>
        <mxCell id="_EiMe0InrAHfZFg6CCc1-33" value="30459879" style="shape=partialRectangle;html=1;whiteSpace=wrap;connectable=0;strokeColor=inherit;overflow=hidden;fillColor=none;top=0;left=0;bottom=0;right=0;pointerEvents=1;fontSize=16;" vertex="1" parent="_EiMe0InrAHfZFg6CCc1-32">
          <mxGeometry width="107" height="65" as="geometry">
            <mxRectangle width="107" height="65" as="alternateBounds" />
          </mxGeometry>
        </mxCell>
        <mxCell id="_EiMe0InrAHfZFg6CCc1-34" value="Susana Perez" style="shape=partialRectangle;html=1;whiteSpace=wrap;connectable=0;strokeColor=inherit;overflow=hidden;fillColor=none;top=0;left=0;bottom=0;right=0;pointerEvents=1;fontSize=16;" vertex="1" parent="_EiMe0InrAHfZFg6CCc1-32">
          <mxGeometry x="107" width="106" height="65" as="geometry">
            <mxRectangle width="106" height="65" as="alternateBounds" />
          </mxGeometry>
        </mxCell>
        <mxCell id="_EiMe0InrAHfZFg6CCc1-35" value="38" style="shape=partialRectangle;html=1;whiteSpace=wrap;connectable=0;strokeColor=inherit;overflow=hidden;fillColor=none;top=0;left=0;bottom=0;right=0;pointerEvents=1;fontSize=16;" vertex="1" parent="_EiMe0InrAHfZFg6CCc1-32">
          <mxGeometry x="213" width="107" height="65" as="geometry">
            <mxRectangle width="107" height="65" as="alternateBounds" />
          </mxGeometry>
        </mxCell>
        <mxCell id="_EiMe0InrAHfZFg6CCc1-15" value="Prestamos" style="shape=table;startSize=30;container=1;collapsible=0;childLayout=tableLayout;strokeColor=default;fontSize=16;fontStyle=1" vertex="1" parent="1">
          <mxGeometry x="510" y="-950" width="200" height="320" as="geometry" />
        </mxCell>
        <mxCell id="_EiMe0InrAHfZFg6CCc1-16" value="" style="shape=tableRow;horizontal=0;startSize=0;swimlaneHead=0;swimlaneBody=0;strokeColor=inherit;top=0;left=0;bottom=0;right=0;collapsible=0;dropTarget=0;fillColor=none;points=[[0,0.5],[1,0.5]];portConstraint=eastwest;fontSize=16;" vertex="1" parent="_EiMe0InrAHfZFg6CCc1-15">
          <mxGeometry y="30" width="200" height="73" as="geometry" />
        </mxCell>
        <mxCell id="_EiMe0InrAHfZFg6CCc1-17" value="&lt;b&gt;Cbu&lt;/b&gt;" style="shape=partialRectangle;html=1;whiteSpace=wrap;connectable=0;strokeColor=inherit;overflow=hidden;fillColor=none;top=0;left=0;bottom=0;right=0;pointerEvents=1;fontSize=16;" vertex="1" parent="_EiMe0InrAHfZFg6CCc1-16">
          <mxGeometry width="100" height="73" as="geometry">
            <mxRectangle width="100" height="73" as="alternateBounds" />
          </mxGeometry>
        </mxCell>
        <mxCell id="_EiMe0InrAHfZFg6CCc1-19" value="&lt;b&gt;Monto&lt;/b&gt;" style="shape=partialRectangle;html=1;whiteSpace=wrap;connectable=0;strokeColor=inherit;overflow=hidden;fillColor=none;top=0;left=0;bottom=0;right=0;pointerEvents=1;fontSize=16;" vertex="1" parent="_EiMe0InrAHfZFg6CCc1-16">
          <mxGeometry x="100" width="100" height="73" as="geometry">
            <mxRectangle width="100" height="73" as="alternateBounds" />
          </mxGeometry>
        </mxCell>
        <mxCell id="_EiMe0InrAHfZFg6CCc1-20" value="" style="shape=tableRow;horizontal=0;startSize=0;swimlaneHead=0;swimlaneBody=0;strokeColor=inherit;top=0;left=0;bottom=0;right=0;collapsible=0;dropTarget=0;fillColor=none;points=[[0,0.5],[1,0.5]];portConstraint=eastwest;fontSize=16;" vertex="1" parent="_EiMe0InrAHfZFg6CCc1-15">
          <mxGeometry y="103" width="200" height="73" as="geometry" />
        </mxCell>
        <mxCell id="_EiMe0InrAHfZFg6CCc1-21" value="876543218" style="shape=partialRectangle;html=1;whiteSpace=wrap;connectable=0;strokeColor=inherit;overflow=hidden;fillColor=none;top=0;left=0;bottom=0;right=0;pointerEvents=1;fontSize=16;" vertex="1" parent="_EiMe0InrAHfZFg6CCc1-20">
          <mxGeometry width="100" height="73" as="geometry">
            <mxRectangle width="100" height="73" as="alternateBounds" />
          </mxGeometry>
        </mxCell>
        <mxCell id="_EiMe0InrAHfZFg6CCc1-23" value="$350.000" style="shape=partialRectangle;html=1;whiteSpace=wrap;connectable=0;strokeColor=inherit;overflow=hidden;fillColor=none;top=0;left=0;bottom=0;right=0;pointerEvents=1;fontSize=16;" vertex="1" parent="_EiMe0InrAHfZFg6CCc1-20">
          <mxGeometry x="100" width="100" height="73" as="geometry">
            <mxRectangle width="100" height="73" as="alternateBounds" />
          </mxGeometry>
        </mxCell>
        <mxCell id="_EiMe0InrAHfZFg6CCc1-24" value="" style="shape=tableRow;horizontal=0;startSize=0;swimlaneHead=0;swimlaneBody=0;strokeColor=inherit;top=0;left=0;bottom=0;right=0;collapsible=0;dropTarget=0;fillColor=none;points=[[0,0.5],[1,0.5]];portConstraint=eastwest;fontSize=16;" vertex="1" parent="_EiMe0InrAHfZFg6CCc1-15">
          <mxGeometry y="176" width="200" height="72" as="geometry" />
        </mxCell>
        <mxCell id="_EiMe0InrAHfZFg6CCc1-25" value="468798468" style="shape=partialRectangle;html=1;whiteSpace=wrap;connectable=0;strokeColor=inherit;overflow=hidden;fillColor=none;top=0;left=0;bottom=0;right=0;pointerEvents=1;fontSize=16;" vertex="1" parent="_EiMe0InrAHfZFg6CCc1-24">
          <mxGeometry width="100" height="72" as="geometry">
            <mxRectangle width="100" height="72" as="alternateBounds" />
          </mxGeometry>
        </mxCell>
        <mxCell id="_EiMe0InrAHfZFg6CCc1-27" value="$400.000" style="shape=partialRectangle;html=1;whiteSpace=wrap;connectable=0;strokeColor=inherit;overflow=hidden;fillColor=none;top=0;left=0;bottom=0;right=0;pointerEvents=1;fontSize=16;" vertex="1" parent="_EiMe0InrAHfZFg6CCc1-24">
          <mxGeometry x="100" width="100" height="72" as="geometry">
            <mxRectangle width="100" height="72" as="alternateBounds" />
          </mxGeometry>
        </mxCell>
        <mxCell id="_EiMe0InrAHfZFg6CCc1-28" style="shape=tableRow;horizontal=0;startSize=0;swimlaneHead=0;swimlaneBody=0;strokeColor=inherit;top=0;left=0;bottom=0;right=0;collapsible=0;dropTarget=0;fillColor=none;points=[[0,0.5],[1,0.5]];portConstraint=eastwest;fontSize=16;" vertex="1" parent="_EiMe0InrAHfZFg6CCc1-15">
          <mxGeometry y="248" width="200" height="72" as="geometry" />
        </mxCell>
        <mxCell id="_EiMe0InrAHfZFg6CCc1-29" value="252498764" style="shape=partialRectangle;html=1;whiteSpace=wrap;connectable=0;strokeColor=inherit;overflow=hidden;fillColor=none;top=0;left=0;bottom=0;right=0;pointerEvents=1;fontSize=16;" vertex="1" parent="_EiMe0InrAHfZFg6CCc1-28">
          <mxGeometry width="100" height="72" as="geometry">
            <mxRectangle width="100" height="72" as="alternateBounds" />
          </mxGeometry>
        </mxCell>
        <mxCell id="_EiMe0InrAHfZFg6CCc1-31" value="$600.000" style="shape=partialRectangle;html=1;whiteSpace=wrap;connectable=0;strokeColor=inherit;overflow=hidden;fillColor=none;top=0;left=0;bottom=0;right=0;pointerEvents=1;fontSize=16;" vertex="1" parent="_EiMe0InrAHfZFg6CCc1-28">
          <mxGeometry x="100" width="100" height="72" as="geometry">
            <mxRectangle width="100" height="72" as="alternateBounds" />
          </mxGeometry>
        </mxCell>
        <mxCell id="_EiMe0InrAHfZFg6CCc1-39" style="edgeStyle=orthogonalEdgeStyle;rounded=0;orthogonalLoop=1;jettySize=auto;html=1;entryX=0;entryY=0.5;entryDx=0;entryDy=0;" edge="1" parent="1" source="_EiMe0InrAHfZFg6CCc1-36" target="C-vyLk0tnHw3VtMMgP7b-3">
          <mxGeometry relative="1" as="geometry" />
        </mxCell>
      </root>
    </mxGraphModel>
  </diagram>
</mxfile>
